{
  "accessors": [
    {
      "bufferView": 3,
      "componentType": 5126,
      "count": 4714,
      "max": [
        48.34121322631836,
        154.19454956054688,
        -28.105066299438477
      ],
      "min": [
        -170.75685119628906,
        54.22294235229492,
        -124.42839813232422
      ],
      "type": "VEC3"
    },
    {
      "bufferView": 3,
      "byteOffset": 56568,
      "componentType": 5126,
      "count": 4714,
      "max": [
        0.9814360737800598,
        0.998771607875824,
        0.9999260306358337
      ],
      "min": [
        -0.9992247223854065,
        -0.9999702572822571,
        -0.9999768137931824
      ],
      "type": "VEC3"
    },
    {
      "bufferView": 2,
      "componentType": 5126,
      "count": 4714,
      "max": [
        1.04045569896698,
        0.42697933316230774
      ],
      "min": [
        -0.21540787816047668,
        0.06059505045413971
      ],
      "type": "VEC2"
    },
    {
      "bufferView": 1,
      "componentType": 5125,
      "count": 26862,
      "type": "SCALAR"
    },
    {
      "bufferView": 3,
      "byteOffset": 113136,
      "componentType": 5126,
      "count": 3799,
      "max": [
        117.26134490966797,
        130.42062377929688,
        -41.94702911376953
      ],
      "min": [
        -64.63775634765625,
        53.86704635620117,
        -111.19763946533203
      ],
      "type": "VEC3"
    },
    {
      "bufferView": 3,
      "byteOffset": 158724,
      "componentType": 5126,
      "count": 3799,
      "max": [
        0.9979477524757385,
        0.9999293684959412,
        0.9999703764915466
      ],
      "min": [
        -1.0,
        -0.9997377395629883,
        -0.9998887777328491
      ],
      "type": "VEC3"
    },
    {
      "bufferView": 2,
      "byteOffset": 37712,
      "componentType": 5126,
      "count": 3799,
      "max": [
        0.43218424916267395,
        0.374234676361084
      ],
      "min": [
        -0.6104559898376465,
        0.11110085248947144
      ],
      "type": "VEC2"
    },
    {
      "bufferView": 1,
      "byteOffset": 107448,
      "componentType": 5125,
      "count": 21354,
      "type": "SCALAR"
    },
    {
      "bufferView": 3,
      "byteOffset": 204312,
      "componentType": 5126,
      "count": 494,
      "max": [
        13.535152435302734,
        13.60970401763916,
        13.684669494628906
      ],
      "min": [
        -13.535148620605469,
        -13.60970401763916,
        -13.684669494628906
      ],
      "type": "VEC3"
    },
    {
      "bufferView": 3,
      "byteOffset": 210240,
      "componentType": 5126,
      "count": 494,
      "max": [
        0.9891486763954163,
        0.9945969581604004,
        1.0
      ],
      "min": [
        -0.9891484379768372,
        -0.9945968985557556,
        -1.0
      ],
      "type": "VEC3"
    },
    {
      "bufferView": 2,
      "byteOffset": 68104,
      "componentType": 5126,
      "count": 494,
      "max": [
        1.0000004768371582,
        1.0
      ],
      "min": [
        0.0,
        -1.1920928955078125e-07
      ],
      "type": "VEC2"
    },
    {
      "bufferView": 1,
      "byteOffset": 192864,
      "componentType": 5125,
      "count": 2520,
      "type": "SCALAR"
    },
    {
      "bufferView": 3,
      "byteOffset": 216168,
      "componentType": 5126,
      "count": 494,
      "max": [
        13.535152435302734,
        13.60970401763916,
        13.684669494628906
      ],
      "min": [
        -13.535148620605469,
        -13.60970401763916,
        -13.684669494628906
      ],
      "type": "VEC3"
    },
    {
      "bufferView": 3,
      "byteOffset": 222096,
      "componentType": 5126,
      "count": 494,
      "max": [
        0.9891486763954163,
        0.9945969581604004,
        1.0
      ],
      "min": [
        -0.9891484379768372,
        -0.9945968985557556,
        -1.0
      ],
      "type": "VEC3"
    },
    {
      "bufferView": 2,
      "byteOffset": 72056,
      "componentType": 5126,
      "count": 494,
      "max": [
        1.0000004768371582,
        1.0
      ],
      "min": [
        0.0,
        -1.1920928955078125e-07
      ],
      "type": "VEC2"
    },
    {
      "bufferView": 1,
      "byteOffset": 202944,
      "componentType": 5125,
      "count": 2520,
      "type": "SCALAR"
    },
    {
      "bufferView": 5,
      "componentType": 5126,
      "count": 7,
      "max": [
        1.1891182661056519,
        2.6104760575407226e-09,
        0.013407190330326557,
        0.0,
        1.4561572359842232e-16,
        1.1891182661056519,
        2.3152985306751361e-07,
        0.0,
        0.013407190330326557,
        2.3151514483288338e-07,
        1.1891182661056519,
        0.0,
        133.3180694580078,
        109.85417175292969,
        92.57278442382813,
        1.0
      ],
      "min": [
        -1.1890426874160767,
        0.0,
        0.0,
        0.0,
        0.0,
        -1.1891182661056519,
        0.0,
        0.0,
        0.0,
        0.0,
        1.0,
        0.0,
        -80.70384216308594,
        0.0,
        0.0,
        1.0
      ],
      "type": "MAT4"
    },
    {
      "bufferView": 0,
      "componentType": 5123,
      "count": 4714,
      "type": "VEC4"
    },
    {
      "bufferView": 4,
      "componentType": 5126,
      "count": 4714,
      "max": [
        1.0,
        0.5,
        0.05333072319626808,
        0.0
      ],
      "min": [
        0.5,
        0.0,
        0.0,
        0.0
      ],
      "type": "VEC4"
    },
    {
      "bufferView": 0,
      "byteOffset": 37712,
      "componentType": 5123,
      "count": 3799,
      "type": "VEC4"
    },
    {
      "bufferView": 4,
      "byteOffset": 75424,
      "componentType": 5126,
      "count": 3799,
      "max": [
        1.0,
        0.5,
        0.2825702130794525,
        0.0
      ],
      "min": [
        0.4045290946960449,
        0.0,
        0.0,
        0.0
      ],
      "type": "VEC4"
    },
    {
      "bufferView": 6,
      "componentType": 5126,
      "count": 181,
      "max": [
        6.0
      ],
      "min": [
        0.0
      ],
      "type": "SCALAR"
    },
    {
      "bufferView": 8,
      "componentType": 5126,
      "count": 181,
      "max": [
        9.81185735327017e-07,
        0.22357462346553802,
        1.6763808119435453e-08,
        1.0
      ],
      "min": [
        -1.0234247156404308e-06,
        -0.22439897060394287,
        -2.6385512228443986e-06,
        0.974497377872467
      ],
      "type": "VEC4"
    },
    {
      "bufferView": 6,
      "byteOffset": 724,
      "componentType": 5126,
      "count": 181,
      "max": [
        6.0
      ],
      "min": [
        0.0
      ],
      "type": "SCALAR"
    },
    {
      "bufferView": 8,
      "byteOffset": 2896,
      "componentType": 5126,
      "count": 181,
      "max": [
        9.489021124409192e-08,
        0.18484941124916077,
        5.960465188081798e-08,
        1.0
      ],
      "min": [
        -4.687917609658143e-09,
        -0.18639369308948517,
        -4.480108284354856e-09,
        0.9824751615524292
      ],
      "type": "VEC4"
    },
    {
      "bufferView": 6,
      "byteOffset": 1448,
      "componentType": 5126,
      "count": 181,
      "max": [
        6.0
      ],
      "min": [
        0.0
      ],
      "type": "SCALAR"
    },
    {
      "bufferView": 8,
      "byteOffset": 5792,
      "componentType": 5126,
      "count": 181,
      "max": [
        1.4901159772762185e-07,
        0.1562160849571228,
        6.70552182668871e-08,
        1.0
      ],
      "min": [
        -5.701266125868187e-09,
        -0.15823359787464142,
        -4.384742346985604e-09,
        0.9874017238616943
      ],
      "type": "VEC4"
    },
    {
      "bufferView": 6,
      "byteOffset": 2172,
      "componentType": 5126,
      "count": 177,
      "max": [
        6.0
      ],
      "min": [
        0.0
      ],
      "type": "SCALAR"
    },
    {
      "bufferView": 7,
      "componentType": 5126,
      "count": 177,
      "max": [
        49.643096923828125,
        1.4210854715202004e-14,
        2.842170943040401e-14
      ],
      "min": [
        49.643096923828125,
        -1.4210854715202004e-14,
        -2.842170943040401e-14
      ],
      "type": "VEC3"
    },
    {
      "bufferView": 6,
      "byteOffset": 2880,
      "componentType": 5126,
      "count": 181,
      "max": [
        6.0
      ],
      "min": [
        0.0
      ],
      "type": "SCALAR"
    },
    {
      "bufferView": 8,
      "byteOffset": 8688,
      "componentType": 5126,
      "count": 181,
      "max": [
        1.1920928244535389e-07,
        0.11202903091907501,
        3.735013720529423e-08,
        1.0
      ],
      "min": [
        -3.1853819582039478e-09,
        -0.1131291389465332,
        -9.972771053412544e-09,
        0.9935802817344666
      ],
      "type": "VEC4"
    },
    {
      "bufferView": 6,
      "byteOffset": 3604,
      "componentType": 5126,
      "count": 181,
      "max": [
        6.0
      ],
      "min": [
        0.0
      ],
      "type": "SCALAR"
    },
    {
      "bufferView": 8,
      "byteOffset": 11584,
      "componentType": 5126,
      "count": 181,
      "max": [
        0.3878859579563141,
        -3.915478430371877e-08,
        0.9999968409538269,
        -2.9112971589029257e-08
      ],
      "min": [
        -0.37746861577033997,
        -8.448618871170765e-08,
        0.9217073917388916,
        -8.032672837998689e-08
      ],
      "type": "VEC4"
    }
  ],
  "animations": [
    {
      "channels": [
        {
          "sampler": 0,
          "target": {
            "node": 13,
            "path": "rotation"
          }
        },
        {
          "sampler": 1,
          "target": {
            "node": 12,
            "path": "rotation"
          }
        },
        {
          "sampler": 2,
          "target": {
            "node": 11,
            "path": "rotation"
          }
        },
        {
          "sampler": 3,
          "target": {
            "node": 10,
            "path": "translation"
          }
        },
        {
          "sampler": 4,
          "target": {
            "node": 10,
            "path": "rotation"
          }
        },
        {
          "sampler": 5,
          "target": {
            "node": 9,
            "path": "rotation"
          }
        }
      ],
      "name": "Take 001",
      "samplers": [
        {
          "input": 21,
          "interpolation": "LINEAR",
          "output": 22
        },
        {
          "input": 23,
          "interpolation": "LINEAR",
          "output": 24
        },
        {
          "input": 25,
          "interpolation": "LINEAR",
          "output": 26
        },
        {
          "input": 27,
          "interpolation": "LINEAR",
          "output": 28
        },
        {
          "input": 29,
          "interpolation": "LINEAR",
          "output": 30
        },
        {
          "input": 31,
          "interpolation": "LINEAR",
          "output": 32
        }
      ]
    }
  ],
  "asset": {
    "extras": {
      "author": "vadeacust (https://sketchfab.com/vadeacust)",
      "license": "CC-BY-4.0 (http://creativecommons.org/licenses/by/4.0/)",
      "source": "https://sketchfab.com/3d-models/koi-fish-0cc8a85a63a747ee93ea36cb5c1ca82a",
      "title": "Koi Fish"
    },
    "generator": "Sketchfab-12.63.0",
    "version": "2.0"
  },
  "bufferViews": [
    {
      "buffer": 0,
      "byteLength": 68104,
      "byteStride": 8,
      "name": "shortBufferViews",
      "target": 34962
    },
    {
      "buffer": 0,
      "byteLength": 213024,
      "byteOffset": 68104,
      "name": "floatBufferViews",
      "target": 34963
    },
    {
      "buffer": 0,
      "byteLength": 76008,
      "byteOffset": 281128,
      "byteStride": 8,
      "name": "floatBufferViews",
      "target": 34962
    },
    {
      "buffer": 0,
      "byteLength": 228024,
      "byteOffset": 357136,
      "byteStride": 12,
      "name": "floatBufferViews",
      "target": 34962
    },
    {
      "buffer": 0,
      "byteLength": 136208,
      "byteOffset": 585160,
      "byteStride": 16,
      "name": "floatBufferViews",
      "target": 34962
    },
    {
      "buffer": 0,
      "byteLength": 448,
      "byteOffset": 721368,
      "name": "floatBufferViews"
    },
    {
      "buffer": 0,
      "byteLength": 4328,
      "byteOffset": 721816,
      "name": "floatBufferViews"
    },
    {
      "buffer": 0,
      "byteLength": 2124,
      "byteOffset": 726144,
      "byteStride": 12,
      "name": "floatBufferViews"
    },
    {
      "buffer": 0,
      "byteLength": 14480,
      "byteOffset": 728268,
      "byteStride": 16,
      "name": "floatBufferViews"
    }
  ],
  "buffers": [
    {
      "byteLength": 742748,
      "uri": "scene.bin"
    }
  ],
  "images": [
    {
      "uri": "textures/fish_fins_baseColor.jpeg"
    }
  ],
  "materials": [
    {
      "doubleSided": true,
      "name": "fish_fins",
      "pbrMetallicRoughness": {
        "baseColorFactor": [
          0.3431783537,
          0.3431783537,
          0.3431783537,
          1.0
        ],
        "baseColorTexture": {
          "index": 0
        },
        "metallicFactor": 0.0
      }
    },
    {
      "doubleSided": true,
      "name": "fish_scales",
      "pbrMetallicRoughness": {
        "baseColorTexture": {
          "index": 0
        },
        "metallicFactor": 0.0,
        "roughnessFactor": 0.6
      }
    },
    {
      "doubleSided": true,
      "name": "fish_eyes",
      "pbrMetallicRoughness": {
        "baseColorFactor": [
          0.0141391344,
          0.0011880553,
          0.0011880553,
          1.0
        ],
        "metallicFactor": 0.0,
        "roughnessFactor": 0.0
      }
    }
  ],
  "meshes": [
    {
      "name": "Box049_fish fins_0",
      "primitives": [
        {
          "attributes": {
            "JOINTS_0": 17,
            "NORMAL": 1,
            "POSITION": 0,
            "TEXCOORD_0": 2,
            "WEIGHTS_0": 18
          },
          "indices": 3,
          "material": 0,
          "mode": 4
        }
      ]
    },
    {
      "name": "Box049_fish scales_0",
      "primitives": [
        {
          "attributes": {
            "JOINTS_0": 19,
            "NORMAL": 5,
            "POSITION": 4,
            "TEXCOORD_0": 6,
            "WEIGHTS_0": 20
          },
          "indices": 7,
          "material": 1,
          "mode": 4
        }
      ]
    },
    {
      "name": "Sphere004_fish eyes_0",
      "primitives": [
        {
          "attributes": {
            "NORMAL": 9,
            "POSITION": 8,
            "TEXCOORD_0": 10
          },
          "indices": 11,
          "material": 2,
          "mode": 4
        }
      ]
    },
    {
      "name": "Sphere005_fish eyes_0",
      "primitives": [
        {
          "attributes": {
            "NORMAL": 13,
            "POSITION": 12,
            "TEXCOORD_0": 14
          },
          "indices": 15,
          "material": 2,
          "mode": 4
        }
      ]
    }
  ],
  "nodes": [
    {
      "children": [
        1
      ],
      "matrix": [
        1.0,
        0.0,
        0.0,
        0.0,
        0.0,
        0.01395915634930156,
        -0.9999025464057922,
        0.0,
        0.0,
        0.9999025464057922,
        0.01395915634930156,
        0.0,
        0.0,
        -1.2538211345672603,
        -1.7356494665145876,
        1.0
      ],
      "name": "Sketchfab_model"
    },
    {
      "children": [
        2
      ],
      "matrix": [
        1.0,
        0.0,
        0.0,
        0.0,
        0.0,
        0.0,
        1.0,
        0.0,
        0.0,
        -1.0,
        0.0,
        0.0,
        0.0,
        0.0,
        0.0,
        1.0
      ],
      "name": "f0ac50c0d4cd4aea9185b929d801c2b9.fbx"
    },
    {
      "children": [
        3
      ],
      "name": "Object_2"
    },
    {
      "children": [
        4
      ],
      "name": "RootNode"
    },
    {
      "children": [
        5,
        7,
        8,
        6,
        19
      ],
      "name": "Object_4"
    },
    {
      "children": [
        9
      ],
      "name": "_rootJoint"
    },
    {
      "matrix": [
        1.1891182661056519,
        4.1359030627651384e-25,
        0.0,
        0.0,
        3.6046889324667835e-26,
        -0.10363882780075068,
        -1.1845933198928833,
        0.0,
        -4.1201647300578904e-25,
        1.1845933198928833,
        -0.10363882780075068,
        0.0,
        -1.4210854715202004e-14,
        75.92137908935547,
        -90.11247253417967,
        1.0
      ],
      "name": "Object_6"
    },
    {
      "mesh": 0,
      "name": "Object_7",
      "skin": 0
    },
    {
      "mesh": 1,
      "name": "Object_8",
      "skin": 0
    },
    {
      "children": [
        10,
        15,
        17
      ],
      "name": "Bone009_00",
      "rotation": [
        0.00563776632770896,
        -8.580764188081957e-08,
        0.9999842047691345,
        -2.210115823686465e-08
      ],
      "translation": [
        132.26585388183594,
        109.8541488647461,
        -94.07005310058594
      ]
    },
    {
      "children": [
        11
      ],
      "name": "Bone011_01",
      "rotation": [
        2.6469459324169366e-23,
        -5.173729732632637e-05,
        -6.202485131616244e-24,
        1.0
      ],
      "translation": [
        49.643096923828125,
        0.0,
        0.0
      ]
    },
    {
      "children": [
        12
      ],
      "name": "Bone012_02",
      "rotation": [
        5.960464477539063e-08,
        5.178945139050484e-05,
        1.4901161193847656e-08,
        1.0
      ],
      "translation": [
        57.409969329833984,
        -7.62939453125e-06,
        7.62939453125e-06
      ]
    },
    {
      "children": [
        13
      ],
      "name": "Bone013_03",
      "rotation": [
        2.864375403532904e-14,
        -1.6693957149982452e-06,
        4.782768641539263e-20,
        1.0
      ],
      "translation": [
        53.29682922363281,
        -7.62939453125e-06,
        7.62939453125e-06
      ]
    },
    {
      "children": [
        14
      ],
      "name": "Bone014_04",
      "rotation": [
        -1.0928140491044675e-16,
        1.7350539565086365e-06,
        1.6763802790364934e-08,
        1.0
      ],
      "translation": [
        53.67203903198242,
        7.62939453125e-06,
        7.62939453125e-06
      ]
    },
    {
      "name": "Bone010_05",
      "rotation": [
        1.0908467205009304e-30,
        1.5352302762394743e-16,
        -7.105427357601002e-15,
        1.0
      ],
      "translation": [
        57.020301818847656,
        -0.0001068115234375,
        7.62939453125e-06
      ]
    },
    {
      "children": [
        16
      ],
      "name": "Sphere004",
      "rotation": [
        -0.29797884821891785,
        -0.44078871607780457,
        0.7220810651779175,
        0.44216835498809814
      ],
      "scale": [
        0.6633189916610718,
        0.6633179783821106,
        0.6633189916610718
      ],
      "translation": [
        23.07965850830078,
        -7.172096252441406,
        16.776771545410156
      ]
    },
    {
      "mesh": 2,
      "name": "Sphere004_fish eyes_0"
    },
    {
      "children": [
        18
      ],
      "name": "Sphere005",
      "rotation": [
        0.5426724553108215,
        0.7335469722747803,
        -0.34739726781845093,
        -0.2161725014448166
      ],
      "scale": [
        0.6633179783821106,
        0.6633179783821106,
        0.6633189916610718
      ],
      "translation": [
        23.652198791503906,
        -4.4872589111328125,
        -16.959487915039063
      ]
    },
    {
      "mesh": 3,
      "name": "Sphere005_fish eyes_0"
    },
    {
      "name": "Box049",
      "rotation": [
        -0.7372774481773376,
        0.0,
        0.0,
        0.6755900979042053
      ],
      "scale": [
        1.1891180276870728,
        1.1891180276870728,
        1.1891180276870728
      ],
      "translation": [
        0.0,
        80.28905487060547,
        -90.11247253417969
      ]
    }
  ],
  "samplers": [
    {
      "magFilter": 9729,
      "minFilter": 9987,
      "wrapS": 10497,
      "wrapT": 10497
    }
  ],
  "scene": 0,
  "scenes": [
    {
      "name": "Sketchfab_Scene",
      "nodes": [
        0
      ]
    }
  ],
  "skins": [
    {
      "inverseBindMatrices": 16,
      "joints": [
        5,
        9,
        10,
        11,
        12,
        13,
        14
      ],
      "skeleton": 5
    }
  ],
  "textures": [
    {
      "sampler": 0,
      "source": 0
    }
  ]
}
